<svg height="512" viewBox="0 0 53 60" width="512" xmlns="http://www.w3.org/2000/svg"><g id="Page-1" fill="none" fill-rule="evenodd"><g id="010---Directional-Traffic-Arrow" fill-rule="nonzero" transform="translate(0 -1)"><path id="Shape" d="m51 21h-6v33c-.0015928.5516236-.4483764.9984072-1 1h-10c-.2655018.0009342-.5203988-.1041227-.7081381-.2918619-.1877392-.1877393-.2927961-.4426363-.2918619-.7081381v-33h-6c-.3708398.002689-.7118642-.2028062-.8827573-.5319337s-.1427857-.7262873.0727573-1.0280663l1.98-2.8 6.93-9.81 2.43-3.44.69-.98c.1884814-.25913406.4895695-.41244589.81-.41244589s.6215186.15331183.81.41244589l11.97 17.03c.215543.301779.2436504.6989388.0727573 1.0280663s-.5119175.5346227-.8827573.5319337z" fill="#283593"/><path id="Shape" d="m48 21h-6v33c-.0015928.5516236-.4483764.9984072-1 1h-7c-.2655018.0009342-.5203988-.1041227-.7081381-.2918619-.1877392-.1877393-.2927961-.4426363-.2918619-.7081381v-33h-6c-.3708398.002689-.7118642-.2028062-.8827573-.5319337s-.1427857-.7262873.0727573-1.0280663l1.98-2.8 6.93-9.81 2.43-3.44 11.28 16.05c.215543.301779.2436504.6989388.0727573 1.0280663s-.5119175.5346227-.8827573.5319337z" fill="#3f51b5"/><path id="Shape" d="m26.81 42.56-11.97 17.03c-.1884814.2591341-.4895695.4124459-.81.4124459s-.6215186-.1533118-.81-.4124459l-.69-.98-2.43-3.44-6.93-9.81-1.98-2.8c-.215543-.301779-.2436504-.6989388-.07275728-1.0280663.17089311-.3291275.51191752-.5346227.88275728-.5319337h6v-33c.00159279-.55162365.44837635-.99840721 1-1h10c.2655018-.00093417.5203988.10412266.7081381.29186192.1877392.18773927.2927961.44263631.2918619.70813808v33h6c.3708398-.002689.7118642.2028062.8827573.5319337s.1427857.7262873-.0727573 1.0280663z" fill="#0377bc"/><path id="Shape" d="m23.81 42.56-11.28 16.05-2.43-3.44-6.93-9.81-1.98-2.8c-.215543-.301779-.2436504-.6989388-.07275728-1.0280663.17089311-.3291275.51191752-.5346227.88275728-.5319337h6v-33c.00159279-.55162365.44837635-.99840721 1-1h7c.2655018-.00093417.5203988.10412266.7081381.29186192.1877392.18773927.2927961.44263631.2918619.70813808v33h6c.3708398-.002689.7118642.2028062.8827573.5319337s.1427857.7262873-.0727573 1.0280663z" fill="#02a9f4"/><g fill="#000"><path id="Shape" d="m43.9971 56h-10c-1.1040441-.0012675-1.9987325-.8959559-2-2v-32h-5c-.7464906.0026834-1.4315013-.4132569-1.7734361-1.0768352-.3419347-.6635782-.2830931-1.4628177.1523361-2.0691648l12.0234-17.0205c.374468-.52260354.9771467-.83355786 1.6200583-.83587513.6429116-.00231726 1.2478162.30428455 1.6260417.82417513l11.98 17.0429c.4313537.6000298.4893198 1.3914216.15 2.0479-.3396325.6694559-1.0277245 1.0901887-1.7784 1.0874h-5v32c-.0012675 1.1040441-.8959559 1.9987325-2 2zm-11-36c.5522847 0 1 .4477153 1 1v33.0015l10-.0015v-33c0-.5522847.4477153-1 1-1h6l-11.9785-17.0146-12.0157 17.0322z"/><path id="Shape" d="m14.0332 61c-.6402169-.0009699-1.2416133-.3071096-1.6191-.8242l-12.0371-17.041c-.43283962-.6000933-.49174839-1.3925012-.1524-2.05.34003925-.6689668 1.02787535-1.0893734 1.7783-1.0869h5v-31.9979c.00126747-1.10404407.89595593-1.99873253 2-2h10c1.1040441.00126747 1.9987325.89595593 2 2v31.9976h5c.7464458-.0028423 1.431486.4129858 1.7734434 1.0765025.3419574.6635168.2831106 1.4627227-.1523434 2.0689975l-11.9629 17.02c-.3768923.5235126-.9818354.8347037-1.6269.8369zm-12.0303-19.0024 1.9864 2.7824 10.0507 14.2307 11.9551-17.0283-5.9922.0152c-.5522847 0-1-.4477153-1-1v-32.9976h-10v32.9976c0 .5522847-.44771525 1-1 1z"/></g></g></g></svg>